<svg width="22" height="21" viewBox="0 0 22 21" fill="none" xmlns="http://www.w3.org/2000/svg">
<path d="M4.33334 20.3333V18.3333H13.9667C15.5222 18.3333 16.8611 17.8167 17.9833 16.7833C19.1056 15.75 19.6667 14.4667 19.6667 12.9333C19.6667 11.4 19.1056 10.1167 17.9833 9.08333C16.8611 8.05 15.5222 7.53333 13.9667 7.53333H4.13334L7.93334 11.3333L6.53334 12.7333L0.333336 6.53333L6.53334 0.333328L7.93334 1.73333L4.13334 5.53333H13.9333C16.0444 5.53333 17.8611 6.24444 19.3833 7.66666C20.9056 9.08888 21.6667 10.8444 21.6667 12.9333C21.6667 15.0222 20.9056 16.7778 19.3833 18.2C17.8611 19.6222 16.0444 20.3333 13.9333 20.3333H4.33334Z" fill="white"/>
</svg>
